<svg width="20" height="10" viewBox="0 0 20 10" fill="none" xmlns="http://www.w3.org/2000/svg">
<path fill-rule="evenodd" clip-rule="evenodd" d="M4.739 3.8386V3.81842L1.43548 3.81842C1.21638 3.81842 1.00626 3.91249 0.851335 4.07994C0.696411 4.24738 0.609375 4.47449 0.609375 4.7113C0.609375 4.9481 0.696411 5.17521 0.851335 5.34266C1.00626 5.51011 1.21638 5.60418 1.43548 5.60418L4.739 5.60418V5.56672L16.8932 5.56671L14.8693 7.76669C14.7198 7.92922 14.6358 8.14965 14.6358 8.3795C14.6358 8.60934 14.7198 8.82978 14.8693 8.9923C15.0189 9.15483 15.2216 9.24614 15.4331 9.24614C15.6445 9.24614 15.8473 9.15483 15.9968 8.9923L19.3793 5.31546C19.4521 5.23442 19.5096 5.13865 19.5484 5.03357C19.629 4.82165 19.629 4.58367 19.5484 4.37174C19.5096 4.26667 19.4521 4.1709 19.3793 4.08985L15.9968 0.413013C15.8473 0.250486 15.6445 0.15918 15.4331 0.15918C15.2216 0.15918 15.0189 0.250486 14.8693 0.413013C14.7198 0.575539 14.6358 0.795972 14.6358 1.02582C14.6358 1.25567 14.7198 1.4761 14.8693 1.63863L16.8932 3.8386L4.739 3.8386ZM4.7351 0.246905C4.7351 0.217908 4.73641 0.188981 4.739 0.160225V0.333585C4.73641 0.304829 4.7351 0.275902 4.7351 0.246905ZM4.73651 9.17569C4.73651 9.15243 4.73735 9.12926 4.739 9.10623V9.24515C4.73735 9.22212 4.73651 9.19895 4.73651 9.17569Z" fill="#E2E2E2"/>
</svg>
