<svg width="36" height="49" viewBox="0 0 36 49" fill="none" xmlns="http://www.w3.org/2000/svg">
<path d="M35.6411 18.717C35.4589 18.3254 35.1801 17.996 34.8357 17.7655C34.4912 17.535 34.0946 17.4122 33.6897 17.4109H22.7268V3.16261C22.7503 2.6418 22.6149 2.12708 22.3415 1.69789C22.0681 1.26871 21.6719 0.948922 21.2139 0.787899C20.7737 0.631033 20.2989 0.62927 19.8577 0.782864C19.4165 0.936457 19.0316 1.23751 18.7583 1.6428L1.21765 27.7647C0.997875 28.1087 0.86591 28.5095 0.835108 28.9265C0.804307 29.3435 0.875762 29.7619 1.04224 30.1394C1.19555 30.571 1.46187 30.9447 1.80852 31.2147C2.15517 31.4847 2.56706 31.6392 2.99363 31.6592H13.9565V45.9075C13.9569 46.4082 14.1033 46.8961 14.3751 47.3013C14.6468 47.7064 15.0298 48.0082 15.4694 48.1634C15.6897 48.2374 15.9185 48.2774 16.1491 48.2822C16.495 48.2832 16.8363 48.1955 17.145 48.0262C17.4536 47.857 17.721 47.6111 17.9251 47.3086L35.4657 21.1867C35.7019 20.8324 35.8433 20.4143 35.8742 19.9786C35.9052 19.5428 35.8245 19.1063 35.6411 18.717V18.717ZM18.3417 38.5933V29.2845C18.3417 28.6547 18.1107 28.0506 17.6995 27.6053C17.2883 27.1599 16.7306 26.9098 16.1491 26.9098H7.37878L18.3417 10.4767V19.7856C18.3417 20.4154 18.5727 21.0194 18.9839 21.4648C19.395 21.9101 19.9527 22.1603 20.5342 22.1603H29.3045L18.3417 38.5933Z" fill="white"/>
</svg>
