<svg width="28" height="52" viewBox="0 0 28 52" fill="none" xmlns="http://www.w3.org/2000/svg">
<path d="M18.2914 23.4271H9.51096C8.34659 23.4271 7.22992 22.8985 6.40659 21.9577C5.58326 21.017 5.12071 19.741 5.12071 18.4105C5.12071 17.08 5.58326 15.804 6.40659 14.8633C7.22992 13.9225 8.34659 13.3939 9.51096 13.3939H20.4866C21.0687 13.3939 21.6271 13.6582 22.0388 14.1286C22.4504 14.599 22.6817 15.237 22.6817 15.9022C22.6817 16.5675 22.913 17.2055 23.3246 17.6758C23.7363 18.1462 24.2946 18.4105 24.8768 18.4105C25.459 18.4105 26.0173 18.1462 26.429 17.6758C26.8407 17.2055 27.0719 16.5675 27.0719 15.9022C27.0719 13.9065 26.3781 11.9925 25.1431 10.5814C23.9081 9.17017 22.2331 8.37738 20.4866 8.37738H16.0963V3.36082C16.0963 2.69558 15.8651 2.05759 15.4534 1.5872C15.0417 1.1168 14.4834 0.852539 13.9012 0.852539C13.319 0.852539 12.7607 1.1168 12.349 1.5872C11.9374 2.05759 11.7061 2.69558 11.7061 3.36082V8.37738H9.51096C7.18223 8.37738 4.94887 9.43444 3.30221 11.316C1.65555 13.1976 0.730469 15.7496 0.730469 18.4105C0.730469 21.0715 1.65555 23.6234 3.30221 25.505C4.94887 27.3866 7.18223 28.4436 9.51096 28.4436H18.2914C19.4558 28.4436 20.5725 28.9722 21.3958 29.9129C22.2191 30.8537 22.6817 32.1297 22.6817 33.4602C22.6817 34.7907 22.2191 36.0666 21.3958 37.0074C20.5725 37.9482 19.4558 38.4767 18.2914 38.4767H7.31583C6.73365 38.4767 6.17531 38.2125 5.76365 37.7421C5.35198 37.2717 5.12071 36.6337 5.12071 35.9685C5.12071 35.3032 4.88944 34.6652 4.47778 34.1948C4.06611 33.7245 3.50777 33.4602 2.92559 33.4602C2.34341 33.4602 1.78507 33.7245 1.37341 34.1948C0.96174 34.6652 0.730469 35.3032 0.730469 35.9685C0.730469 37.9642 1.42428 39.8782 2.65928 41.2893C3.89427 42.7005 5.56929 43.4933 7.31583 43.4933H11.7061V48.5099C11.7061 49.1751 11.9374 49.8131 12.349 50.2835C12.7607 50.7539 13.319 51.0181 13.9012 51.0181C14.4834 51.0181 15.0417 50.7539 15.4534 50.2835C15.8651 49.8131 16.0963 49.1751 16.0963 48.5099V43.4933H18.2914C20.6202 43.4933 22.8535 42.4362 24.5002 40.5547C26.1468 38.6731 27.0719 36.1211 27.0719 33.4602C27.0719 30.7992 26.1468 28.2473 24.5002 26.3657C22.8535 24.4841 20.6202 23.4271 18.2914 23.4271V23.4271Z" fill="white"/>
</svg>
