<svg width="24" height="24" viewBox="0 0 24 24" fill="none" xmlns="http://www.w3.org/2000/svg">
<path d="M12.0001 21C12.5305 21 13.0392 20.7893 13.4143 20.4142C13.7894 20.0391 14.0001 19.5304 14.0001 19C14.0001 18.4696 13.7894 17.9609 13.4143 17.5858C13.0392 17.2107 12.5305 17 12.0001 17C11.4697 17 10.961 17.2107 10.5859 17.5858C10.2108 17.9609 10.0001 18.4696 10.0001 19C10.0001 19.5304 10.2108 20.0391 10.5859 20.4142C10.961 20.7893 11.4697 21 12.0001 21ZM13.0001 15.126C13.9406 15.3717 14.7595 15.9514 15.3039 16.7567C15.8483 17.562 16.081 18.5379 15.9585 19.5022C15.8361 20.4665 15.3668 21.3533 14.6384 21.997C13.91 22.6406 12.9722 22.9972 12.0001 23C11.0258 23.001 10.0847 22.6463 9.35337 22.0026C8.62203 21.3589 8.15076 20.4705 8.02802 19.504C7.90527 18.5375 8.13949 17.5594 8.68671 16.7533C9.23393 15.9472 10.0565 15.3686 11.0001 15.126V13H7.0001C6.20445 13 5.44139 12.6839 4.87878 12.1213C4.31617 11.5587 4.0001 10.7957 4.0001 10V8.874C3.05961 8.62827 2.24071 8.04864 1.6963 7.24333C1.15189 6.43802 0.919196 5.4621 1.04166 4.49778C1.16413 3.53346 1.63339 2.64669 2.36182 2.00303C3.09025 1.35937 4.02804 1.00284 5.0001 1C5.97436 0.999039 6.91549 1.35369 7.64683 1.99738C8.37816 2.64107 8.84943 3.52954 8.97218 4.49605C9.09493 5.46255 8.86071 6.44062 8.31349 7.24669C7.76627 8.05276 6.94368 8.6314 6.0001 8.874V10C6.0001 10.2652 6.10546 10.5196 6.29299 10.7071C6.48053 10.8946 6.73488 11 7.0001 11H17.0001C17.2653 11 17.5197 10.8946 17.7072 10.7071C17.8947 10.5196 18.0001 10.2652 18.0001 10V8.874C17.0596 8.62827 16.2407 8.04864 15.6963 7.24333C15.1519 6.43802 14.9192 5.4621 15.0417 4.49778C15.1641 3.53346 15.6334 2.64669 16.3618 2.00303C17.0902 1.35937 18.028 1.00284 19.0001 1C19.9744 0.999039 20.9155 1.35369 21.6468 1.99738C22.3782 2.64107 22.8494 3.52954 22.9722 4.49605C23.0949 5.46255 22.8607 6.44062 22.3135 7.24669C21.7663 8.05276 20.9437 8.6314 20.0001 8.874V10C20.0001 10.7957 19.684 11.5587 19.1214 12.1213C18.5588 12.6839 17.7957 13 17.0001 13H13.0001V15.126ZM4.9971 7H5.0031C5.53327 6.99921 6.04144 6.78794 6.4159 6.41263C6.79037 6.03732 7.0005 5.52868 7.0001 4.9985C6.9997 4.46833 6.78881 3.96001 6.41378 3.58526C6.03875 3.21051 5.53027 3 5.0001 3C4.46993 3 3.96145 3.21051 3.58642 3.58526C3.21139 3.96001 3.0005 4.46833 3.0001 4.9985C2.9997 5.52868 3.20983 6.03732 3.5843 6.41263C3.95876 6.78794 4.46693 6.99921 4.9971 7ZM19.0001 7C19.5305 7 20.0392 6.78929 20.4143 6.41422C20.7894 6.03914 21.0001 5.53044 21.0001 5C21.0001 4.46957 20.7894 3.96086 20.4143 3.58579C20.0392 3.21072 19.5305 3 19.0001 3C18.4697 3 17.961 3.21072 17.5859 3.58579C17.2108 3.96086 17.0001 4.46957 17.0001 5C17.0001 5.53044 17.2108 6.03914 17.5859 6.41422C17.961 6.78929 18.4697 7 19.0001 7Z" fill="black"/>
</svg>
