<svg width="16" height="16" viewBox="0 0 16 16" fill="none" xmlns="http://www.w3.org/2000/svg">
<path d="M5.06058 12.3534C4.86532 12.5487 4.86532 12.8652 5.06058 13.0605L7.64637 15.6463C7.84163 15.8416 8.15821 15.8416 8.35348 15.6463L10.9393 13.0605C11.1345 12.8652 11.1345 12.5487 10.9393 12.3534L8.35347 9.76761C8.15821 9.57235 7.84163 9.57235 7.64637 9.76762L5.06058 12.3534Z" fill="#022B3B"/>
<path d="M2.93934 10.9393C3.1346 11.1345 3.45118 11.1345 3.64644 10.9393L6.23224 8.35348C6.4275 8.15821 6.4275 7.84163 6.23224 7.64637L3.64644 5.06058C3.45118 4.86532 3.1346 4.86532 2.93934 5.06058L0.353553 7.64637C0.158291 7.84163 0.158291 8.15821 0.353552 8.35347L2.93934 10.9393Z" fill="#022B3B"/>
<path d="M5.06058 3.64644C4.86532 3.45118 4.86532 3.1346 5.06058 2.93934L7.64637 0.353553C7.84163 0.158291 8.15821 0.158291 8.35347 0.353552L10.9393 2.93934C11.1345 3.1346 11.1345 3.45118 10.9393 3.64644L8.35348 6.23224C8.15821 6.4275 7.84163 6.4275 7.64637 6.23224L5.06058 3.64644Z" fill="#022B3B"/>
<path d="M13.0605 5.06058C12.8652 4.86532 12.5487 4.86532 12.3534 5.06058L9.76762 7.64637C9.57235 7.84163 9.57235 8.15821 9.76761 8.35347L12.3534 10.9393C12.5487 11.1345 12.8652 11.1345 13.0605 10.9393L15.6463 8.35348C15.8416 8.15821 15.8416 7.84163 15.6463 7.64637L13.0605 5.06058Z" fill="#022B3B"/>
</svg>
