<svg width="18" height="19" viewBox="0 0 18 19" fill="none" xmlns="http://www.w3.org/2000/svg">
<path d="M0.200195 15.125L0.200195 3.875C0.200195 3.03294 0.534454 2.22531 1.12988 1.62988C1.72531 1.03446 2.53294 0.700195 3.375 0.700195L8.7998 0.700195L8.7998 2.5498L3.375 2.5498C3.02359 2.5498 2.68696 2.68999 2.43848 2.93848C2.18999 3.18696 2.0498 3.52359 2.0498 3.875L2.0498 15.125L2.05664 15.2559C2.08674 15.5592 2.22103 15.8441 2.43848 16.0615C2.68696 16.31 3.02359 16.4502 3.375 16.4502L14.625 16.4502C14.9764 16.4502 15.313 16.31 15.5615 16.0615C15.81 15.813 15.9502 15.4764 15.9502 15.125L15.9502 9.70019L17.7998 9.70019L17.7998 15.125L17.7959 15.2822C17.757 16.067 17.4284 16.8119 16.8701 17.3701C16.2747 17.9655 15.4671 18.2998 14.625 18.2998L3.375 18.2998L3.21777 18.2959C2.43296 18.257 1.68814 17.9284 1.12988 17.3701C0.534455 16.7747 0.200195 15.9671 0.200195 15.125Z" fill="#022B3B" stroke="#F0ECE4" stroke-width="0.4"/>
<path d="M14.7617 2.5L11.5 2.5L11.5 0.75L16.875 0.75C17.1071 0.75 17.33 0.841766 17.4941 1.00586C17.6582 1.16995 17.75 1.39293 17.75 1.625L17.75 7L16 7L16 3.73828L9 10.7383L7.76172 9.5L14.7617 2.5Z" fill="#022B3B" stroke="#F0ECE4" stroke-width="0.5"/>
</svg>
