<svg width="18" height="18" viewBox="0 0 18 18" fill="none" xmlns="http://www.w3.org/2000/svg">
<path d="M16.4026 8.62473L13.0276 2.78223C12.9615 2.66778 12.8663 2.57282 12.7517 2.50697C12.6372 2.44111 12.5072 2.40671 12.3751 2.40723H5.62505C5.49289 2.40671 5.36294 2.44111 5.24836 2.50697C5.13378 2.57282 5.03863 2.66778 4.97255 2.78223L1.59755 8.62473C1.53173 8.73875 1.49707 8.86808 1.49707 8.99973C1.49707 9.13138 1.53173 9.26072 1.59755 9.37473L4.97255 15.2172C5.03863 15.3317 5.13378 15.4266 5.24836 15.4925C5.36294 15.5584 5.49289 15.5928 5.62505 15.5922H12.3751C12.5072 15.5928 12.6372 15.5584 12.7517 15.4925C12.8663 15.4266 12.9615 15.3317 13.0276 15.2172L16.4026 9.37473C16.4684 9.26072 16.503 9.13138 16.503 8.99973C16.503 8.86808 16.4684 8.73875 16.4026 8.62473ZM11.9026 14.0922H6.06005L3.11255 8.99973L6.06005 3.90723H11.9401L14.8876 8.99973L11.9026 14.0922Z" fill="#8C8C8C"/>
</svg>
