<svg width="20" height="19" viewBox="0 0 20 19" fill="none" xmlns="http://www.w3.org/2000/svg">
<path d="M17.6504 0.349609C18.4782 0.34982 19.1502 1.02176 19.1504 1.84961V17.1504C19.1502 17.9782 18.4782 18.6502 17.6504 18.6504H3.7002C3.54163 18.6504 3.3895 18.5866 3.27734 18.4756L3.27637 18.4746H3.27539V18.4736L1.02734 16.2393C0.913516 16.1265 0.849715 15.9734 0.849609 15.8145V9.72461C0.849861 8.8968 1.52179 8.22482 2.34961 8.22461H2.875V5.6748C2.87515 4.84677 3.54694 4.1748 4.375 4.1748H6.9248V1.84961L6.93262 1.69629C7.00963 0.940343 7.64863 0.349712 8.4248 0.349609H17.6504ZM8.4248 1.5498C8.25914 1.54991 8.12521 1.68396 8.125 1.84961V4.1748H12.0254C12.8533 4.17501 13.5253 4.84687 13.5254 5.6748V17.4502H17.6504C17.816 17.45 17.95 17.316 17.9502 17.1504V1.84961C17.95 1.68403 17.816 1.55001 17.6504 1.5498H8.4248ZM4.375 5.375C4.20918 5.375 4.0753 5.50901 4.0752 5.6748V8.22461H8.4248C9.25283 8.22461 9.92459 8.89663 9.9248 9.72461V17.4502H12.3252V5.6748C12.3251 5.50913 12.191 5.37521 12.0254 5.375H4.375ZM2.34961 9.4248C2.18403 9.42502 2.05001 9.55903 2.0498 9.72461V15.2002H2.7998C3.62796 15.2002 4.2998 15.872 4.2998 16.7002V17.4502H8.72461V9.72461C8.7244 9.5589 8.59056 9.4248 8.4248 9.4248H2.34961Z" fill="#4F4E4E" stroke="#4F4E4E" stroke-width="0.3"/>
</svg>
