<svg width="18" height="18" viewBox="0 0 18 18" fill="none" xmlns="http://www.w3.org/2000/svg">
<path d="M10.5 6.75H7.5C7.30109 6.75 7.11032 6.82902 6.96967 6.96967C6.82902 7.11032 6.75 7.30109 6.75 7.5V10.5C6.75 10.6989 6.82902 10.8897 6.96967 11.0303C7.11032 11.171 7.30109 11.25 7.5 11.25H10.5C10.6989 11.25 10.8897 11.171 11.0303 11.0303C11.171 10.8897 11.25 10.6989 11.25 10.5V7.5C11.25 7.30109 11.171 7.11032 11.0303 6.96967C10.8897 6.82902 10.6989 6.75 10.5 6.75ZM9.75 9.75H8.25V8.25H9.75V9.75ZM15.75 9.75C15.9489 9.75 16.1397 9.67098 16.2803 9.53033C16.421 9.38968 16.5 9.19891 16.5 9C16.5 8.80109 16.421 8.61032 16.2803 8.46967C16.1397 8.32902 15.9489 8.25 15.75 8.25H14.25V6.75H15.75C15.9489 6.75 16.1397 6.67098 16.2803 6.53033C16.421 6.38968 16.5 6.19891 16.5 6C16.5 5.80109 16.421 5.61032 16.2803 5.46967C16.1397 5.32902 15.9489 5.25 15.75 5.25H14.115C14.003 4.93545 13.8224 4.64977 13.5863 4.41368C13.3502 4.17758 13.0645 3.99699 12.75 3.885V2.25C12.75 2.05109 12.671 1.86032 12.5303 1.71967C12.3897 1.57902 12.1989 1.5 12 1.5C11.8011 1.5 11.6103 1.57902 11.4697 1.71967C11.329 1.86032 11.25 2.05109 11.25 2.25V3.75H9.75V2.25C9.75 2.05109 9.67098 1.86032 9.53033 1.71967C9.38968 1.57902 9.19891 1.5 9 1.5C8.80109 1.5 8.61032 1.57902 8.46967 1.71967C8.32902 1.86032 8.25 2.05109 8.25 2.25V3.75H6.75V2.25C6.75 2.05109 6.67098 1.86032 6.53033 1.71967C6.38968 1.57902 6.19891 1.5 6 1.5C5.80109 1.5 5.61032 1.57902 5.46967 1.71967C5.32902 1.86032 5.25 2.05109 5.25 2.25V3.885C4.93545 3.99699 4.64977 4.17758 4.41368 4.41368C4.17758 4.64977 3.99699 4.93545 3.885 5.25H2.25C2.05109 5.25 1.86032 5.32902 1.71967 5.46967C1.57902 5.61032 1.5 5.80109 1.5 6C1.5 6.19891 1.57902 6.38968 1.71967 6.53033C1.86032 6.67098 2.05109 6.75 2.25 6.75H3.75V8.25H2.25C2.05109 8.25 1.86032 8.32902 1.71967 8.46967C1.57902 8.61032 1.5 8.80109 1.5 9C1.5 9.19891 1.57902 9.38968 1.71967 9.53033C1.86032 9.67098 2.05109 9.75 2.25 9.75H3.75V11.25H2.25C2.05109 11.25 1.86032 11.329 1.71967 11.4697C1.57902 11.6103 1.5 11.8011 1.5 12C1.5 12.1989 1.57902 12.3897 1.71967 12.5303C1.86032 12.671 2.05109 12.75 2.25 12.75H3.885C3.99699 13.0645 4.17758 13.3502 4.41368 13.5863C4.64977 13.8224 4.93545 14.003 5.25 14.115V15.75C5.25 15.9489 5.32902 16.1397 5.46967 16.2803C5.61032 16.421 5.80109 16.5 6 16.5C6.19891 16.5 6.38968 16.421 6.53033 16.2803C6.67098 16.1397 6.75 15.9489 6.75 15.75V14.25H8.25V15.75C8.25 15.9489 8.32902 16.1397 8.46967 16.2803C8.61032 16.421 8.80109 16.5 9 16.5C9.19891 16.5 9.38968 16.421 9.53033 16.2803C9.67098 16.1397 9.75 15.9489 9.75 15.75V14.25H11.25V15.75C11.25 15.9489 11.329 16.1397 11.4697 16.2803C11.6103 16.421 11.8011 16.5 12 16.5C12.1989 16.5 12.3897 16.421 12.5303 16.2803C12.671 16.1397 12.75 15.9489 12.75 15.75V14.115C13.0645 14.003 13.3502 13.8224 13.5863 13.5863C13.8224 13.3502 14.003 13.0645 14.115 12.75H15.75C15.9489 12.75 16.1397 12.671 16.2803 12.5303C16.421 12.3897 16.5 12.1989 16.5 12C16.5 11.8011 16.421 11.6103 16.2803 11.4697C16.1397 11.329 15.9489 11.25 15.75 11.25H14.25V9.75H15.75ZM12.75 12C12.75 12.1989 12.671 12.3897 12.5303 12.5303C12.3897 12.671 12.1989 12.75 12 12.75H6C5.80109 12.75 5.61032 12.671 5.46967 12.5303C5.32902 12.3897 5.25 12.1989 5.25 12V6C5.25 5.80109 5.32902 5.61032 5.46967 5.46967C5.61032 5.32902 5.80109 5.25 6 5.25H12C12.1989 5.25 12.3897 5.32902 12.5303 5.46967C12.671 5.61032 12.75 5.80109 12.75 6V12Z" fill="#8C8C8C"/>
</svg>
