<svg width="24" height="24" viewBox="0 0 24 24" fill="none" xmlns="http://www.w3.org/2000/svg">
<path d="M14.9999 10.0004H11.9999V7.00039C11.9999 6.73518 11.8945 6.48082 11.707 6.29329C11.5195 6.10575 11.2651 6.00039 10.9999 6.00039C10.7347 6.00039 10.4803 6.10575 10.2928 6.29329C10.1053 6.48082 9.9999 6.73518 9.9999 7.00039V10.0004H6.9999C6.73469 10.0004 6.48033 10.1058 6.2928 10.2933C6.10526 10.4808 5.9999 10.7352 5.9999 11.0004C5.9999 11.2656 6.10526 11.52 6.2928 11.7075C6.48033 11.895 6.73469 12.0004 6.9999 12.0004H9.9999V15.0004C9.9999 15.2656 10.1053 15.52 10.2928 15.7075C10.4803 15.895 10.7347 16.0004 10.9999 16.0004C11.2651 16.0004 11.5195 15.895 11.707 15.7075C11.8945 15.52 11.9999 15.2656 11.9999 15.0004V12.0004H14.9999C15.2651 12.0004 15.5195 11.895 15.707 11.7075C15.8945 11.52 15.9999 11.2656 15.9999 11.0004C15.9999 10.7352 15.8945 10.4808 15.707 10.2933C15.5195 10.1058 15.2651 10.0004 14.9999 10.0004ZM21.7099 20.2904L17.9999 16.6104C19.44 14.8148 20.1374 12.5357 19.9487 10.2417C19.76 7.94769 18.6996 5.81318 16.9854 4.27704C15.2713 2.7409 13.0337 1.9199 10.7328 1.98286C8.43194 2.04582 6.24263 2.98795 4.61505 4.61553C2.98747 6.24311 2.04534 8.43243 1.98237 10.7333C1.91941 13.0342 2.74041 15.2718 4.27655 16.9859C5.81269 18.7001 7.94721 19.7605 10.2412 19.9492C12.5352 20.1379 14.8143 19.4405 16.6099 18.0004L20.2899 21.6804C20.3829 21.7741 20.4935 21.8485 20.6153 21.8993C20.7372 21.9501 20.8679 21.9762 20.9999 21.9762C21.1319 21.9762 21.2626 21.9501 21.3845 21.8993C21.5063 21.8485 21.6169 21.7741 21.7099 21.6804C21.8901 21.4939 21.9909 21.2447 21.9909 20.9854C21.9909 20.7261 21.8901 20.4769 21.7099 20.2904ZM10.9999 18.0004C9.61544 18.0004 8.26206 17.5899 7.11091 16.8207C5.95977 16.0515 5.06256 14.9583 4.53275 13.6792C4.00293 12.4001 3.86431 10.9926 4.13441 9.63476C4.4045 8.27689 5.07119 7.02961 6.05016 6.05065C7.02912 5.07168 8.27641 4.40499 9.63427 4.1349C10.9921 3.8648 12.3996 4.00342 13.6787 4.53324C14.9578 5.06305 16.051 5.96026 16.8202 7.1114C17.5894 8.26255 17.9999 9.61592 17.9999 11.0004C17.9999 12.8569 17.2624 14.6374 15.9497 15.9501C14.6369 17.2629 12.8564 18.0004 10.9999 18.0004Z" fill="currentColor"/>
</svg>
