<svg width="12" height="8" viewBox="0 0 12 8" fill="none" xmlns="http://www.w3.org/2000/svg">
<path d="M5.66248 7.34863L0.140057 1.38004C0.0732712 1.30804 0.0277495 1.21624 0.0092539 1.11627C-0.00924167 1.0163 0.000119587 0.91264 0.0361542 0.81842C0.0721887 0.7242 0.133275 0.643653 0.211683 0.58697C0.290091 0.530289 0.382297 0.500022 0.476628 0.5L11.5234 0.499999C11.6177 0.500021 11.7099 0.530288 11.7883 0.586969C11.8667 0.643651 11.9278 0.724199 11.9638 0.818419C11.9999 0.912639 12.0092 1.0163 11.9907 1.11627C11.9723 1.21624 11.9267 1.30804 11.8599 1.38004L6.33752 7.34863C6.29324 7.39661 6.24063 7.43468 6.18271 7.46066C6.1248 7.48663 6.06271 7.5 6 7.5C5.93729 7.5 5.8752 7.48663 5.81729 7.46066C5.75937 7.43468 5.70676 7.39661 5.66248 7.34863Z" fill="#022B3B"/>
</svg>
