<svg width="24" height="24" viewBox="0 0 24 24" fill="none" xmlns="http://www.w3.org/2000/svg">
<path d="M21.9199 11.62C21.8723 11.4972 21.8009 11.3851 21.7099 11.29L19.2099 8.79C19.0216 8.6017 18.7662 8.49591 18.4999 8.49591C18.2336 8.49591 17.9782 8.6017 17.7899 8.79C17.6016 8.9783 17.4958 9.2337 17.4958 9.5C17.4958 9.7663 17.6016 10.0217 17.7899 10.21L18.5899 11H12.9999V8C12.9999 7.73478 12.8945 7.48043 12.707 7.29289C12.5195 7.10536 12.2651 7 11.9999 7C11.7347 7 11.4803 7.10536 11.2928 7.29289C11.1053 7.48043 10.9999 7.73478 10.9999 8V11H5.4099L6.2099 10.21C6.3982 10.0217 6.50399 9.7663 6.50399 9.5C6.50399 9.2337 6.3982 8.9783 6.2099 8.79C6.02159 8.6017 5.7662 8.49591 5.4999 8.49591C5.23359 8.49591 4.9782 8.6017 4.7899 8.79L2.2899 11.29C2.19886 11.3851 2.12749 11.4972 2.0799 11.62C1.97988 11.8635 1.97988 12.1365 2.0799 12.38C2.12749 12.5028 2.19886 12.6149 2.2899 12.71L4.7899 15.21C4.88286 15.3037 4.99346 15.3781 5.11532 15.4289C5.23718 15.4797 5.36788 15.5058 5.4999 15.5058C5.63191 15.5058 5.76261 15.4797 5.88447 15.4289C6.00633 15.3781 6.11693 15.3037 6.2099 15.21C6.30363 15.117 6.37802 15.0064 6.42879 14.8846C6.47956 14.7627 6.50569 14.632 6.50569 14.5C6.50569 14.368 6.47956 14.2373 6.42879 14.1154C6.37802 13.9936 6.30363 13.883 6.2099 13.79L5.4099 13H10.9999V16C10.9999 16.2652 11.1053 16.5196 11.2928 16.7071C11.4803 16.8946 11.7347 17 11.9999 17C12.2651 17 12.5195 16.8946 12.707 16.7071C12.8945 16.5196 12.9999 16.2652 12.9999 16V13H18.5899L17.7899 13.79C17.6962 13.883 17.6218 13.9936 17.571 14.1154C17.5202 14.2373 17.4941 14.368 17.4941 14.5C17.4941 14.632 17.5202 14.7627 17.571 14.8846C17.6218 15.0064 17.6962 15.117 17.7899 15.21C17.8829 15.3037 17.9935 15.3781 18.1153 15.4289C18.2372 15.4797 18.3679 15.5058 18.4999 15.5058C18.6319 15.5058 18.7626 15.4797 18.8845 15.4289C19.0063 15.3781 19.1169 15.3037 19.2099 15.21L21.7099 12.71C21.8009 12.6149 21.8723 12.5028 21.9199 12.38C22.0199 12.1365 22.0199 11.8635 21.9199 11.62Z" fill="#6B9080"/>
<path d="M11.62 2.0801C11.4972 2.1277 11.3851 2.19906 11.29 2.2901L8.79 4.7901C8.6017 4.97841 8.49591 5.2338 8.49591 5.5001C8.49591 5.76641 8.6017 6.0218 8.79 6.2101C8.9783 6.39841 9.2337 6.5042 9.5 6.5042C9.7663 6.5042 10.0217 6.39841 10.21 6.2101L11 5.4101L11 11.0001L8 11.0001C7.73478 11.0001 7.48043 11.1055 7.29289 11.293C7.10536 11.4805 7 11.7349 7 12.0001C7 12.2653 7.10536 12.5197 7.29289 12.7072C7.48043 12.8947 7.73478 13.0001 8 13.0001L11 13.0001L11 18.5901L10.21 17.7901C10.0217 17.6018 9.7663 17.496 9.5 17.496C9.2337 17.496 8.9783 17.6018 8.79 17.7901C8.6017 17.9784 8.49591 18.2338 8.49591 18.5001C8.49591 18.7664 8.6017 19.0218 8.79 19.2101L11.29 21.7101C11.3851 21.8011 11.4972 21.8725 11.62 21.9201C11.8635 22.0201 12.1365 22.0201 12.38 21.9201C12.5028 21.8725 12.6149 21.8011 12.71 21.7101L15.21 19.2101C15.3037 19.1171 15.3781 19.0065 15.4289 18.8847C15.4797 18.7628 15.5058 18.6321 15.5058 18.5001C15.5058 18.3681 15.4797 18.2374 15.4289 18.1155C15.3781 17.9937 15.3037 17.8831 15.21 17.7901C15.117 17.6964 15.0064 17.622 14.8846 17.5712C14.7627 17.5204 14.632 17.4943 14.5 17.4943C14.368 17.4943 14.2373 17.5204 14.1154 17.5712C13.9936 17.622 13.883 17.6964 13.79 17.7901L13 18.5901L13 13.0001L16 13.0001C16.2652 13.0001 16.5196 12.8947 16.7071 12.7072C16.8946 12.5197 17 12.2653 17 12.0001C17 11.7349 16.8946 11.4805 16.7071 11.293C16.5196 11.1055 16.2652 11.0001 16 11.0001L13 11.0001L13 5.4101L13.79 6.2101C13.883 6.30383 13.9936 6.37823 14.1154 6.429C14.2373 6.47976 14.368 6.5059 14.5 6.5059C14.632 6.5059 14.7627 6.47976 14.8846 6.429C15.0064 6.37823 15.117 6.30383 15.21 6.2101C15.3037 6.11714 15.3781 6.00654 15.4289 5.88468C15.4797 5.76282 15.5058 5.63211 15.5058 5.5001C15.5058 5.36809 15.4797 5.23738 15.4289 5.11553C15.3781 4.99367 15.3037 4.88307 15.21 4.7901L12.71 2.2901C12.6149 2.19906 12.5028 2.1277 12.38 2.0801C12.1365 1.98009 11.8635 1.98009 11.62 2.0801Z" fill="#6B9080"/>
</svg>
