<svg width="16" height="16" viewBox="0 0 16 16" fill="none" xmlns="http://www.w3.org/2000/svg">
<path d="M7.99995 5.00044C7.40661 5.00044 6.82659 5.17639 6.33324 5.50603C5.8399 5.83568 5.45538 6.30421 5.22832 6.85239C5.00125 7.40057 4.94184 8.00377 5.0576 8.58571C5.17335 9.16766 5.45908 9.70221 5.87863 10.1218C6.29819 10.5413 6.83274 10.827 7.41468 10.9428C7.99663 11.0586 8.59983 10.9991 9.148 10.7721C9.69618 10.545 10.1647 10.1605 10.4944 9.66715C10.824 9.17381 11 8.59379 11 8.00044C11 7.20479 10.6839 6.44173 10.1213 5.87912C9.55867 5.31651 8.7956 5.00044 7.99995 5.00044V5.00044ZM7.99995 9.50044C7.70328 9.50044 7.41327 9.41247 7.1666 9.24765C6.91993 9.08282 6.72767 8.84856 6.61413 8.57447C6.5006 8.30038 6.4709 7.99878 6.52878 7.70781C6.58665 7.41684 6.72952 7.14956 6.93929 6.93978C7.14907 6.73 7.41635 6.58714 7.70732 6.52926C7.99829 6.47139 8.29989 6.50109 8.57398 6.61462C8.84807 6.72815 9.08234 6.92041 9.24716 7.16709C9.41198 7.41376 9.49995 7.70377 9.49995 8.00044C9.49995 8.39827 9.34192 8.7798 9.06061 9.0611C8.77931 9.34241 8.39778 9.50044 7.99995 9.50044ZM15.2825 7.46794L13.52 5.75044V3.23044C13.52 3.03153 13.4409 2.84076 13.3003 2.70011C13.1596 2.55946 12.9689 2.48044 12.77 2.48044H10.2875L8.53245 0.717942C8.46273 0.647646 8.37978 0.59185 8.28839 0.553774C8.19699 0.515697 8.09896 0.496094 7.99995 0.496094C7.90095 0.496094 7.80292 0.515697 7.71152 0.553774C7.62013 0.59185 7.53718 0.647646 7.46745 0.717942L5.74995 2.48044H3.22995C3.03104 2.48044 2.84028 2.55946 2.69962 2.70011C2.55897 2.84076 2.47995 3.03153 2.47995 3.23044V5.75044L0.717454 7.46794C0.647158 7.53766 0.591362 7.62062 0.553286 7.71201C0.515209 7.8034 0.495605 7.90143 0.495605 8.00044C0.495605 8.09945 0.515209 8.19748 0.553286 8.28888C0.591362 8.38027 0.647158 8.46322 0.717454 8.53294L2.47995 10.2879V12.7704C2.47995 12.9694 2.55897 13.1601 2.69962 13.3008C2.84028 13.4414 3.03104 13.5204 3.22995 13.5204H5.74995L7.50495 15.2829C7.57468 15.3532 7.65763 15.409 7.74902 15.4471C7.84042 15.4852 7.93845 15.5048 8.03745 15.5048C8.13646 15.5048 8.23449 15.4852 8.32589 15.4471C8.41728 15.409 8.50023 15.3532 8.56995 15.2829L10.325 13.5204H12.8075C13.0064 13.5204 13.1971 13.4414 13.3378 13.3008C13.4784 13.1601 13.5575 12.9694 13.5575 12.7704V10.2879L15.32 8.53294C15.3879 8.46077 15.4408 8.37587 15.4757 8.28313C15.5106 8.19039 15.5267 8.09165 15.5232 7.99262C15.5198 7.8936 15.4967 7.79624 15.4554 7.70619C15.414 7.61613 15.3553 7.53516 15.2825 7.46794ZM12.245 9.44794C12.1741 9.5174 12.1177 9.60024 12.0791 9.69164C12.0405 9.78305 12.0204 9.88121 12.02 9.98044V12.0204H9.97995C9.88072 12.0209 9.78256 12.041 9.69115 12.0796C9.59975 12.1182 9.51692 12.1746 9.44745 12.2454L7.99995 13.6929L6.55245 12.2454C6.48299 12.1746 6.40016 12.1182 6.30875 12.0796C6.21735 12.041 6.11918 12.0209 6.01995 12.0204H3.97995V9.98044C3.97954 9.88121 3.95944 9.78305 3.92082 9.69164C3.8822 9.60024 3.82582 9.5174 3.75495 9.44794L2.30745 8.00044L3.75495 6.55294C3.82582 6.48348 3.8822 6.40065 3.92082 6.30924C3.95944 6.21784 3.97954 6.11967 3.97995 6.02044V3.98044H6.01995C6.11918 3.98003 6.21735 3.95993 6.30875 3.92131C6.40016 3.88269 6.48299 3.82631 6.55245 3.75544L7.99995 2.30794L9.44745 3.75544C9.51692 3.82631 9.59975 3.88269 9.69115 3.92131C9.78256 3.95993 9.88072 3.98003 9.97995 3.98044H12.02V6.02044C12.0204 6.11967 12.0405 6.21784 12.0791 6.30924C12.1177 6.40065 12.1741 6.48348 12.245 6.55294L13.6925 8.00044L12.245 9.44794Z" fill="#8C8C8C"/>
</svg>
