<svg width="16" height="20" viewBox="0 0 16 20" fill="none" xmlns="http://www.w3.org/2000/svg">
<path d="M4 18H12V15C12 13.9 11.6083 12.9583 10.825 12.175C10.0417 11.3917 9.1 11 8 11C6.9 11 5.95834 11.3917 5.175 12.175C4.39167 12.9583 4 13.9 4 15V18ZM8 9C9.1 9 10.0417 8.60833 10.825 7.825C11.6083 7.04167 12 6.1 12 5V2H4V5C4 6.1 4.39167 7.04167 5.175 7.825C5.95834 8.60833 6.9 9 8 9ZM1 20C0.71667 20 0.479337 19.904 0.288004 19.712C0.0966702 19.52 0.000670115 19.2827 3.44827e-06 19C-0.000663218 18.7173 0.0953369 18.48 0.288004 18.288C0.48067 18.096 0.718003 18 1 18H2V15C2 13.9833 2.23767 13.029 2.713 12.137C3.18834 11.245 3.85067 10.5327 4.7 10C3.85 9.46667 3.18767 8.75433 2.713 7.863C2.23834 6.97167 2.00067 6.01733 2 5V2H1C0.71667 2 0.479337 1.904 0.288004 1.712C0.0966702 1.52 0.000670115 1.28267 3.44827e-06 1C-0.000663218 0.717333 0.0953369 0.48 0.288004 0.288C0.48067 0.0960001 0.718003 0 1 0H15C15.2833 0 15.521 0.0960001 15.713 0.288C15.905 0.48 16.0007 0.717333 16 1C15.9993 1.28267 15.9033 1.52033 15.712 1.713C15.5207 1.90567 15.2833 2.00133 15 2H14V5C14 6.01667 13.7627 6.971 13.288 7.863C12.8133 8.755 12.1507 9.46733 11.3 10C12.15 10.5333 12.8127 11.246 13.288 12.138C13.7633 13.03 14.0007 13.984 14 15V18H15C15.2833 18 15.521 18.096 15.713 18.288C15.905 18.48 16.0007 18.7173 16 19C15.9993 19.2827 15.9033 19.5203 15.712 19.713C15.5207 19.9057 15.2833 20.0013 15 20H1Z" fill="#4F4E4E"/>
</svg>
