<svg width="24" height="24" viewBox="0 0 24 24" fill="none" xmlns="http://www.w3.org/2000/svg">
<path d="M2.5004 8.85964L11.5004 14.0596C11.6524 14.1474 11.8249 14.1936 12.0004 14.1936C12.1759 14.1936 12.3484 14.1474 12.5004 14.0596L21.5004 8.85964C21.6515 8.77238 21.7772 8.64709 21.8649 8.49622C21.9526 8.34535 21.9993 8.17415 22.0004 7.99964C22.0011 7.82343 21.9552 7.65016 21.8674 7.49738C21.7796 7.34461 21.653 7.21774 21.5004 7.12964L12.5004 1.93964C12.3484 1.85187 12.1759 1.80566 12.0004 1.80566C11.8249 1.80566 11.6524 1.85187 11.5004 1.93964L2.5004 7.12964C2.34779 7.21774 2.22118 7.34461 2.13337 7.49738C2.04557 7.65016 1.9997 7.82343 2.0004 7.99964C2.00145 8.17415 2.04816 8.34535 2.13587 8.49622C2.22359 8.64709 2.34926 8.77238 2.5004 8.85964ZM12.0004 3.99964L19.0004 7.99964L12.0004 11.9996L5.0004 7.99964L12.0004 3.99964ZM20.5004 11.1696L12.0004 15.9996L3.5004 11.1296C3.38626 11.0635 3.26018 11.0206 3.1294 11.0035C2.99862 10.9863 2.86573 10.9951 2.73839 11.0295C2.61105 11.0639 2.49177 11.1232 2.38743 11.2038C2.28308 11.2845 2.19573 11.3851 2.1304 11.4996C2.00002 11.7293 1.96576 12.0011 2.03507 12.2559C2.10439 12.5107 2.27167 12.7277 2.5004 12.8596L11.5004 18.0596C11.6524 18.1474 11.8249 18.1936 12.0004 18.1936C12.1759 18.1936 12.3484 18.1474 12.5004 18.0596L21.5004 12.8596C21.7291 12.7277 21.8964 12.5107 21.9657 12.2559C22.035 12.0011 22.0008 11.7293 21.8704 11.4996C21.8051 11.3851 21.7177 11.2845 21.6134 11.2038C21.509 11.1232 21.3897 11.0639 21.2624 11.0295C21.1351 10.9951 21.0022 10.9863 20.8714 11.0035C20.7406 11.0206 20.6145 11.0635 20.5004 11.1296V11.1696ZM20.5004 15.1696L12.0004 19.9996L3.5004 15.1296C3.38626 15.0635 3.26018 15.0206 3.1294 15.0035C2.99862 14.9863 2.86573 14.9951 2.73839 15.0295C2.61105 15.0639 2.49177 15.1232 2.38743 15.2038C2.28308 15.2845 2.19573 15.3851 2.1304 15.4996C2.00002 15.7293 1.96576 16.0011 2.03507 16.2559C2.10439 16.5107 2.27167 16.7277 2.5004 16.8596L11.5004 22.0596C11.6524 22.1474 11.8249 22.1936 12.0004 22.1936C12.1759 22.1936 12.3484 22.1474 12.5004 22.0596L21.5004 16.8596C21.7291 16.7277 21.8964 16.5107 21.9657 16.2559C22.035 16.0011 22.0008 15.7293 21.8704 15.4996C21.8051 15.3851 21.7177 15.2845 21.6134 15.2038C21.509 15.1232 21.3897 15.0639 21.2624 15.0295C21.1351 14.9951 21.0022 14.9863 20.8714 15.0035C20.7406 15.0206 20.6145 15.0635 20.5004 15.1296V15.1696Z" fill="black"/>
</svg>
