<svg width="27" height="15" viewBox="0 0 27 15" fill="none" xmlns="http://www.w3.org/2000/svg">
<path fill-rule="evenodd" clip-rule="evenodd" d="M5.86287 0.144603C5.86287 0.0945842 5.8649 0.0446927 5.86893 -0.00488281V0.294089C5.8649 0.244513 5.86287 0.194622 5.86287 0.144603ZM1.17394 6.04017L5.86893 6.04017V6.0735L23.1411 6.0735L20.2651 2.44196C20.0527 2.17367 19.9333 1.8098 19.9333 1.43039C19.9333 1.05098 20.0527 0.687104 20.2651 0.418819C20.4776 0.150533 20.7658 -0.000187451 21.0663 -0.000187451C21.3667 -0.000187451 21.6549 0.150533 21.8674 0.418819L26.674 6.48824C26.7775 6.62203 26.8591 6.78012 26.9144 6.95357C27.0288 7.30339 27.0288 7.69624 26.9144 8.04606C26.8591 8.21951 26.7775 8.3776 26.674 8.51138L21.8674 14.5808C21.6549 14.8491 21.3667 14.9998 21.0663 14.9998C20.7658 14.9998 20.4776 14.8491 20.2651 14.5808C20.0527 14.3125 19.9333 13.9486 19.9333 13.5692C19.9333 13.1898 20.0527 12.826 20.2651 12.5577L23.1411 8.92613L5.86893 8.92613V8.98795H1.17394C0.862589 8.98795 0.563994 8.83266 0.343838 8.55625C0.123682 8.27985 0 7.90496 0 7.51406C0 7.12316 0.123682 6.74827 0.343838 6.47186C0.563994 6.19545 0.862589 6.04017 1.17394 6.04017ZM5.86488 14.8835C5.86488 14.8424 5.86624 14.8015 5.86893 14.7609V15.0061C5.86624 14.9655 5.86488 14.9246 5.86488 14.8835Z" fill="#F0ECE4"/>
</svg>
