<svg width="18" height="19" viewBox="0 0 18 19" fill="none" xmlns="http://www.w3.org/2000/svg">
<path d="M3.375 0.952932L8.8 0.952932L8.8 2.80293L3.375 2.80293C3.02359 2.80293 2.68657 2.94253 2.43808 3.19101C2.1896 3.4395 2.05 3.77652 2.05 4.12793L2.05 15.3779C2.05 15.7293 2.1896 16.0664 2.43808 16.3148C2.68657 16.5633 3.02359 16.7029 3.375 16.7029L14.625 16.7029C14.9764 16.7029 15.3134 16.5633 15.5619 16.3148C15.8104 16.0664 15.95 15.7293 15.95 15.3779L15.95 9.95293L17.8 9.95293L17.8 15.3779C17.8 16.22 17.4655 17.0276 16.8701 17.623C16.2746 18.2184 15.4671 18.5529 14.625 18.5529L3.375 18.5529C2.53294 18.5529 1.72536 18.2184 1.12994 17.623C0.534508 17.0276 0.2 16.22 0.2 15.3779L0.199999 4.12793C0.199999 3.28587 0.534507 2.47829 1.12994 1.88287C1.72536 1.28744 2.53294 0.952932 3.375 0.952932Z" fill="white" stroke="#022B3B" stroke-width="0.4"/>
<path d="M15.5733 4.41795L9.00008 10.9912L7.76176 9.75285L14.335 3.17963L14.7618 2.75285L14.1582 2.75285L11.5001 2.75285L11.5001 1.00285L16.8751 1.00285C17.1071 1.00285 17.3297 1.09504 17.4938 1.25913C17.6579 1.42323 17.7501 1.64579 17.7501 1.87785L17.7501 7.25285L16.0001 7.25285L16.0001 4.59473L16.0001 3.99117L15.5733 4.41795Z" fill="white" stroke="#022B3B" stroke-width="0.5"/>
</svg>
