<svg width="24" height="25" viewBox="0 0 24 25" fill="none" xmlns="http://www.w3.org/2000/svg">
<path d="M13.41 12.5002L16.71 9.21019C16.8032 9.11695 16.8772 9.00626 16.9277 8.88444C16.9781 8.76261 17.0041 8.63204 17.0041 8.50019C17.0041 8.36833 16.9781 8.23776 16.9277 8.11594C16.8772 7.99411 16.8032 7.88342 16.71 7.79019C16.6168 7.69695 16.5061 7.62299 16.3842 7.57253C16.2624 7.52207 16.1319 7.49609 16 7.49609C15.8681 7.49609 15.7376 7.52207 15.6158 7.57253C15.4939 7.62299 15.3832 7.69695 15.29 7.79019L11.29 11.7902C11.1963 11.8831 11.1219 11.9937 11.0711 12.1156C11.0203 12.2375 10.9942 12.3682 10.9942 12.5002C10.9942 12.6322 11.0203 12.7629 11.0711 12.8848C11.1219 13.0066 11.1963 13.1172 11.29 13.2102L15.29 17.2102C15.383 17.3039 15.4936 17.3783 15.6154 17.4291C15.7373 17.4798 15.868 17.506 16 17.506C16.132 17.506 16.2627 17.4798 16.3846 17.4291C16.5064 17.3783 16.617 17.3039 16.71 17.2102C16.8037 17.1172 16.8781 17.0066 16.9289 16.8848C16.9797 16.7629 17.0058 16.6322 17.0058 16.5002C17.0058 16.3682 16.9797 16.2375 16.9289 16.1156C16.8781 15.9937 16.8037 15.8831 16.71 15.7902L13.41 12.5002ZM8 7.50019C7.73478 7.50019 7.48043 7.60554 7.29289 7.79308C7.10536 7.98062 7 8.23497 7 8.50019V16.5002C7 16.7654 7.10536 17.0198 7.29289 17.2073C7.48043 17.3948 7.73478 17.5002 8 17.5002C8.26522 17.5002 8.51957 17.3948 8.70711 17.2073C8.89464 17.0198 9 16.7654 9 16.5002V8.50019C9 8.23497 8.89464 7.98062 8.70711 7.79308C8.51957 7.60554 8.26522 7.50019 8 7.50019Z" fill="#022B3B" fill-opacity="0.5"/>
</svg>
