<svg width="12" height="14" viewBox="0 0 12 14" fill="none" xmlns="http://www.w3.org/2000/svg">
<path d="M3.33317 12.334H8.66651V10.334C8.66651 9.60065 8.40539 8.97287 7.88317 8.45065C7.36095 7.92843 6.73317 7.66732 5.99984 7.66732C5.26651 7.66732 4.63873 7.92843 4.11651 8.45065C3.59428 8.97287 3.33317 9.60065 3.33317 10.334V12.334ZM5.99984 6.33398C6.73317 6.33398 7.36095 6.07287 7.88317 5.55065C8.40539 5.02843 8.66651 4.40065 8.66651 3.66732V1.66732H3.33317V3.66732C3.33317 4.40065 3.59428 5.02843 4.11651 5.55065C4.63873 6.07287 5.26651 6.33398 5.99984 6.33398ZM1.33317 13.6673C1.14428 13.6673 0.986062 13.6033 0.858506 13.4753C0.730951 13.3473 0.666951 13.1891 0.666506 13.0007C0.666062 12.8122 0.730062 12.654 0.858506 12.526C0.986951 12.398 1.14517 12.334 1.33317 12.334H1.99984V10.334C1.99984 9.65621 2.15828 9.01998 2.47517 8.42532C2.79206 7.83065 3.23362 7.35576 3.79984 7.00065C3.23317 6.6451 2.79162 6.17021 2.47517 5.57598C2.15873 4.98176 2.00028 4.34554 1.99984 3.66732V1.66732H1.33317C1.14428 1.66732 0.986062 1.60332 0.858506 1.47532C0.730951 1.34732 0.666951 1.1891 0.666506 1.00065C0.666062 0.812207 0.730062 0.653984 0.858506 0.525984C0.986951 0.397984 1.14517 0.333984 1.33317 0.333984H10.6665C10.8554 0.333984 11.0138 0.397984 11.1418 0.525984C11.2698 0.653984 11.3336 0.812207 11.3332 1.00065C11.3327 1.1891 11.2687 1.34754 11.1412 1.47598C11.0136 1.60443 10.8554 1.66821 10.6665 1.66732H9.99984V3.66732C9.99984 4.3451 9.84162 4.98132 9.52517 5.57598C9.20873 6.17065 8.76695 6.64554 8.19984 7.00065C8.76651 7.35621 9.20828 7.83132 9.52517 8.42598C9.84206 9.02065 10.0003 9.65665 9.99984 10.334V12.334H10.6665C10.8554 12.334 11.0138 12.398 11.1418 12.526C11.2698 12.654 11.3336 12.8122 11.3332 13.0007C11.3327 13.1891 11.2687 13.3475 11.1412 13.476C11.0136 13.6044 10.8554 13.6682 10.6665 13.6673H1.33317Z" fill="#022B3B"/>
</svg>
