<svg width="20" height="20" viewBox="0 0 20 20" fill="none" xmlns="http://www.w3.org/2000/svg">
<path d="M13.7105 10.7096C14.6909 9.9383 15.4065 8.88056 15.7577 7.68358C16.109 6.4866 16.0784 5.2099 15.6703 4.0311C15.2621 2.85231 14.4967 1.83003 13.4806 1.10649C12.4644 0.382955 11.2479 -0.00585937 10.0005 -0.00585938C8.75303 -0.00585938 7.5366 0.382955 6.52041 1.10649C5.50423 1.83003 4.73883 2.85231 4.3307 4.0311C3.92257 5.2099 3.892 6.4866 4.24325 7.68358C4.59449 8.88056 5.31009 9.9383 6.29048 10.7096C4.61056 11.3827 3.14477 12.499 2.04938 13.9396C0.953983 15.3801 0.270048 17.0909 0.070485 18.8896C0.0560396 19.021 0.0676015 19.1538 0.10451 19.2807C0.141419 19.4075 0.202952 19.5259 0.285596 19.629C0.452504 19.8371 0.695269 19.9705 0.960485 19.9996C1.2257 20.0288 1.49164 19.9514 1.69981 19.7845C1.90798 19.6176 2.04131 19.3749 2.07049 19.1096C2.29007 17.1548 3.22217 15.3494 4.6887 14.0384C6.15524 12.7274 8.05338 12.0027 10.0205 12.0027C11.9876 12.0027 13.8857 12.7274 15.3523 14.0384C16.8188 15.3494 17.7509 17.1548 17.9705 19.1096C17.9977 19.3554 18.1149 19.5823 18.2996 19.7467C18.4843 19.911 18.7233 20.0011 18.9705 19.9996H19.0805C19.3426 19.9695 19.5822 19.8369 19.747 19.6309C19.9119 19.4248 19.9886 19.162 19.9605 18.8996C19.76 17.0958 19.0724 15.3806 17.9713 13.9378C16.8703 12.4951 15.3974 11.3791 13.7105 10.7096ZM10.0005 9.99964C9.20936 9.99964 8.436 9.76504 7.7782 9.32551C7.12041 8.88599 6.60772 8.26128 6.30497 7.53037C6.00222 6.79947 5.923 5.9952 6.07734 5.21928C6.23168 4.44335 6.61265 3.73062 7.17206 3.17121C7.73147 2.6118 8.4442 2.23084 9.22012 2.0765C9.99605 1.92215 10.8003 2.00137 11.5312 2.30412C12.2621 2.60687 12.8868 3.11956 13.3264 3.77736C13.7659 4.43515 14.0005 5.20851 14.0005 5.99964C14.0005 7.0605 13.5791 8.07792 12.8289 8.82806C12.0788 9.57821 11.0614 9.99964 10.0005 9.99964Z" fill="black"/>
</svg>
