<svg width="24" height="24" viewBox="0 0 24 24" fill="none" xmlns="http://www.w3.org/2000/svg">
<path d="M19.9998 16.1803V7.82029C20.4795 7.65317 20.9088 7.36701 21.2477 6.98861C21.5865 6.61021 21.8238 6.15197 21.9371 5.65684C22.0505 5.16171 22.0363 4.64591 21.8958 4.15777C21.7554 3.66963 21.4933 3.22515 21.1341 2.86598C20.7749 2.50682 20.3305 2.24472 19.8423 2.10427C19.3542 1.96382 18.8384 1.94961 18.3432 2.06297C17.8481 2.17633 17.3899 2.41355 17.0115 2.7524C16.6331 3.09125 16.3469 3.52063 16.1798 4.00029H7.8198C7.65269 3.52063 7.36652 3.09125 6.98812 2.7524C6.60972 2.41355 6.15148 2.17633 5.65635 2.06297C5.16122 1.94961 4.64542 1.96382 4.15728 2.10427C3.66915 2.24472 3.22466 2.50682 2.8655 2.86598C2.50633 3.22515 2.24424 3.66963 2.10378 4.15777C1.96333 4.64591 1.94912 5.16171 2.06248 5.65684C2.17585 6.15197 2.41307 6.61021 2.75191 6.98861C3.09076 7.36701 3.52014 7.65317 3.9998 7.82029V16.1803C3.52014 16.3474 3.09076 16.6336 2.75191 17.012C2.41307 17.3904 2.17585 17.8486 2.06248 18.3437C1.94912 18.8389 1.96333 19.3547 2.10378 19.8428C2.24424 20.3309 2.50633 20.7754 2.8655 21.1346C3.22466 21.4938 3.66915 21.7559 4.15728 21.8963C4.64542 22.0368 5.16122 22.051 5.65635 21.9376C6.15148 21.8242 6.60972 21.587 6.98812 21.2482C7.36652 20.9093 7.65269 20.4799 7.8198 20.0003H16.1798C16.3469 20.4799 16.6331 20.9093 17.0115 21.2482C17.3899 21.587 17.8481 21.8242 18.3432 21.9376C18.8384 22.051 19.3542 22.0368 19.8423 21.8963C20.3305 21.7559 20.7749 21.4938 21.1341 21.1346C21.4933 20.7754 21.7554 20.3309 21.8958 19.8428C22.0363 19.3547 22.0505 18.8389 21.9371 18.3437C21.8238 17.8486 21.5865 17.3904 21.2477 17.012C20.9088 16.6336 20.4795 16.3474 19.9998 16.1803ZM18.9998 4.00029C19.1976 4.00029 19.3909 4.05894 19.5554 4.16882C19.7198 4.2787 19.848 4.43488 19.9237 4.61761C19.9994 4.80033 20.0192 5.0014 19.9806 5.19538C19.942 5.38936 19.8468 5.56754 19.7069 5.7074C19.5671 5.84725 19.3889 5.94249 19.1949 5.98107C19.0009 6.01966 18.7998 5.99986 18.6171 5.92417C18.4344 5.84848 18.2782 5.72031 18.1683 5.55586C18.0584 5.39141 17.9998 5.19807 17.9998 5.00029C17.9998 4.73507 18.1052 4.48072 18.2927 4.29318C18.4802 4.10565 18.7346 4.00029 18.9998 4.00029ZM4.9998 4.00029C5.19758 4.00029 5.39092 4.05894 5.55537 4.16882C5.71982 4.2787 5.84799 4.43488 5.92368 4.61761C5.99937 4.80033 6.01917 5.0014 5.98059 5.19538C5.942 5.38936 5.84676 5.56754 5.70691 5.7074C5.56705 5.84725 5.38887 5.94249 5.19489 5.98107C5.00091 6.01966 4.79984 5.99986 4.61712 5.92417C4.43439 5.84848 4.27821 5.72031 4.16833 5.55586C4.05845 5.39141 3.9998 5.19807 3.9998 5.00029C3.9998 4.73507 4.10516 4.48072 4.29269 4.29318C4.48023 4.10565 4.73458 4.00029 4.9998 4.00029ZM4.9998 20.0003C4.80202 20.0003 4.60868 19.9416 4.44423 19.8318C4.27978 19.7219 4.15161 19.5657 4.07592 19.383C4.00023 19.2002 3.98043 18.9992 4.01902 18.8052C4.0576 18.6112 4.15284 18.433 4.29269 18.2932C4.43255 18.1533 4.61073 18.0581 4.80471 18.0195C4.99869 17.9809 5.19976 18.0007 5.38248 18.0764C5.56521 18.1521 5.72139 18.2803 5.83127 18.4447C5.94115 18.6092 5.9998 18.8025 5.9998 19.0003C5.9998 19.2655 5.89444 19.5199 5.70691 19.7074C5.51937 19.8949 5.26502 20.0003 4.9998 20.0003ZM16.1798 18.0003H7.8198C7.67048 17.5809 7.42969 17.2 7.1149 16.8852C6.80011 16.5704 6.4192 16.3296 5.9998 16.1803V7.82029C6.4192 7.67097 6.80011 7.43018 7.1149 7.11539C7.42969 6.80059 7.67048 6.41969 7.8198 6.00029H16.1798C16.3291 6.41969 16.5699 6.80059 16.8847 7.11539C17.1995 7.43018 17.5804 7.67097 17.9998 7.82029V16.1803C17.5804 16.3296 17.1995 16.5704 16.8847 16.8852C16.5699 17.2 16.3291 17.5809 16.1798 18.0003ZM18.9998 20.0003C18.802 20.0003 18.6087 19.9416 18.4442 19.8318C18.2798 19.7219 18.1516 19.5657 18.0759 19.383C18.0002 19.2002 17.9804 18.9992 18.019 18.8052C18.0576 18.6112 18.1528 18.433 18.2927 18.2932C18.4325 18.1533 18.6107 18.0581 18.8047 18.0195C18.9987 17.9809 19.1998 18.0007 19.3825 18.0764C19.5652 18.1521 19.7214 18.2803 19.8313 18.4447C19.9412 18.6092 19.9998 18.8025 19.9998 19.0003C19.9998 19.2655 19.8944 19.5199 19.7069 19.7074C19.5194 19.8949 19.265 20.0003 18.9998 20.0003Z" fill="#8C8C8C"/>
</svg>
