<svg width="18" height="18" viewBox="0 0 18 18" fill="none" xmlns="http://www.w3.org/2000/svg">
<path d="M16.2825 11.6854L12.8925 8.3029C12.9634 7.95743 12.9986 7.60558 12.9975 7.2529C12.9972 6.28589 12.7532 5.33455 12.2879 4.48681C11.8227 3.63908 11.1512 2.92231 10.3356 2.40276C9.52006 1.88321 8.58666 1.57764 7.62173 1.51431C6.65679 1.45097 5.69146 1.63191 4.81497 2.0404C4.70392 2.09113 4.60693 2.1682 4.53243 2.26492C4.45793 2.36164 4.40817 2.47508 4.38746 2.5954C4.36684 2.71419 4.37516 2.8362 4.41172 2.95109C4.44827 3.06598 4.51199 3.17037 4.59747 3.2554L7.85996 6.5104L6.50996 7.8604L3.25496 4.5979C3.16922 4.51375 3.06451 4.45144 2.94965 4.4162C2.83479 4.38096 2.71315 4.37382 2.59496 4.3954C2.4754 4.41535 2.36245 4.46398 2.26579 4.53712C2.16914 4.61027 2.09165 4.70575 2.03996 4.8154C1.63011 5.69478 1.44933 6.66354 1.51443 7.63155C1.57954 8.59956 1.88842 9.53539 2.41235 10.352C2.93627 11.1685 3.65822 11.8393 4.51102 12.3019C5.36383 12.7646 6.31978 13.004 7.28997 12.9979C7.64264 12.999 7.9945 12.9638 8.33996 12.8929L11.7225 16.2829C11.7922 16.3532 11.8751 16.409 11.9665 16.4471C12.0579 16.4851 12.156 16.5047 12.255 16.5047C12.354 16.5047 12.452 16.4851 12.5434 16.4471C12.6348 16.409 12.7177 16.3532 12.7875 16.2829C12.8578 16.2132 12.9136 16.1302 12.9516 16.0388C12.9897 15.9474 13.0093 15.8494 13.0093 15.7504C13.0093 15.6514 12.9897 15.5534 12.9516 15.462C12.9136 15.3706 12.8578 15.2876 12.7875 15.2179L9.11246 11.5429C9.02063 11.4517 8.90674 11.3858 8.78189 11.3516C8.65703 11.3174 8.52546 11.3162 8.39996 11.3479C8.03784 11.4449 7.66484 11.4953 7.28997 11.4979C6.729 11.5028 6.1726 11.3968 5.65282 11.1857C5.13304 10.9747 4.66014 10.6629 4.26138 10.2683C3.86262 9.87377 3.54587 9.40419 3.32938 8.88666C3.11289 8.36913 3.00093 7.81389 2.99996 7.2529C2.99899 7.00166 3.01906 6.75079 3.05996 6.5029L5.99996 9.4504C6.06969 9.5207 6.15264 9.57649 6.24403 9.61457C6.33543 9.65265 6.43346 9.67225 6.53246 9.67225C6.63147 9.67225 6.7295 9.65265 6.8209 9.61457C6.91229 9.57649 6.99524 9.5207 7.06497 9.4504L9.44997 7.0429C9.58514 6.90305 9.66071 6.71615 9.66071 6.52165C9.66071 6.32715 9.58514 6.14025 9.44997 6.0004L6.53246 3.0604C6.7804 3.01991 7.03124 2.99984 7.28246 3.0004C8.409 3.00239 9.48871 3.45129 10.2846 4.24858C11.0805 5.04586 11.5275 6.12637 11.5275 7.2529C11.5248 7.62777 11.4744 8.00078 11.3775 8.3629C11.3457 8.48839 11.347 8.61997 11.3812 8.74482C11.4153 8.86968 11.4812 8.98356 11.5725 9.0754L15.2475 12.7504C15.3887 12.8916 15.5802 12.971 15.78 12.971C15.9797 12.971 16.1712 12.8916 16.3125 12.7504C16.4537 12.6092 16.533 12.4176 16.533 12.2179C16.533 12.0182 16.4537 11.8266 16.3125 11.6854H16.2825Z" fill="#8C8C8C"/>
</svg>
